<svg id="SvgjsSvg1012" width="288" height="288" xmlns="http://www.w3.org/2000/svg" version="1.1" xmlns:xlink="http://www.w3.org/1999/xlink" xmlns:svgjs="http://svgjs.com/svgjs"><defs id="SvgjsDefs1013"></defs><g id="SvgjsG1014"><svg xmlns="http://www.w3.org/2000/svg" viewBox="0 0 32 32" width="288" height="288"><path d="M26.6,17.2,19,11.5V6c0-2.95-1.55-4-3-4s-3,1-3,4v5.5L5.4,17.2A1,1,0,0,0,5,18v3a1,1,0,0,0,.43.82,1,1,0,0,0,.92.12L13,19.44v5.23L10.2,28.4A1,1,0,0,0,11,30h9.68a1,1,0,0,0,.83-1.56L19,24.7V19.44l6.65,2.5a1,1,0,0,0,.92-.12A1,1,0,0,0,27,21V18A1,1,0,0,0,26.6,17.2ZM25,19.56l-6.65-2.5a1,1,0,0,0-.92.12A1,1,0,0,0,17,18v7a1,1,0,0,0,.17.56L18.81,28H13l1.8-2.4A1,1,0,0,0,15,25V18a1,1,0,0,0-.43-.82,1,1,0,0,0-.92-.12L7,19.56V18.5l7.6-5.7A1,1,0,0,0,15,12V6c0-.75.13-2,1-2s1,1.25,1,2v6a1,1,0,0,0,.4.8L25,18.5Z" data-name="airplane mode" fill="#ffffff" class="color000 svgShape"></path></svg></g></svg>