<svg id="SvgjsSvg1017" width="288" height="288" xmlns="http://www.w3.org/2000/svg" version="1.1" xmlns:xlink="http://www.w3.org/1999/xlink" xmlns:svgjs="http://svgjs.com/svgjs"><defs id="SvgjsDefs1018"></defs><g id="SvgjsG1019"><svg xmlns="http://www.w3.org/2000/svg" viewBox="0 0 512 512" width="288" height="288"><path d="M259.8389,409.274l63.8961,20.8848a5.7468,5.7468,0,0,0,5.7522-5.7456l.0067-23.96-49.343-29.0472a54.5388,54.5388,0,0,0,2.8433-17.5531L286.08,278l144.0723,41.7781a7.61,7.61,0,0,0,7.6171-7.6208V273.7337l-148.87-80.2855,2.46-73.6715c0-20.9542-16.0663-37.9383-35.8672-37.9383-19.8066,0-35.8663,16.98-35.8663,37.9383l2.48,74.214-147.876,79.74v38.4266a7.6184,7.6184,0,0,0,7.6238,7.6208l143.0585-41.4893,3.0723,75.564a54.727,54.727,0,0,0,3.0125,18.0547l-48.4785,28.5485-.0066,23.9571a5.7552,5.7552,0,0,0,5.7522,5.7484l63.8961-20.8876Z" data-name="Airplane02" fill="#ffffff" class="color000 svgShape"></path></svg></g></svg>